<?xml version="1.0" encoding="UTF-8" standalone="no"?><svg xmlns="http://www.w3.org/2000/svg" xmlns:xlink="http://www.w3.org/1999/xlink" contentScriptType="application/ecmascript" contentStyleType="text/css" height="273px" preserveAspectRatio="none" style="width:353px;height:273px;background:#FFFFFF;" version="1.1" viewBox="0 0 353 273" width="353px" zoomAndPan="magnify"><defs><filter height="300%" id="f1frxvyvauvoj2" width="300%" x="-1" y="-1"><feGaussianBlur result="blurOut" stdDeviation="2.0"/><feColorMatrix in="blurOut" result="blurOut2" type="matrix" values="0 0 0 0 0 0 0 0 0 0 0 0 0 0 0 0 0 0 .4 0"/><feOffset dx="4.0" dy="4.0" in="blurOut2" result="blurOut3"/><feBlend in="SourceGraphic" in2="blurOut3" mode="normal"/></filter></defs><g><!--MD5=[1d7ba1c7002d54515419844fbd155368]
class Controller--><rect codeLine="1" fill="#FEFECE" filter="url(#f1frxvyvauvoj2)" height="103.3438" id="Controller" style="stroke:#A80036;stroke-width:1.5;" width="160" x="89.5" y="7"/><ellipse cx="138.25" cy="23" fill="#ADD1B2" rx="11" ry="11" style="stroke:#A80036;stroke-width:1.0;"/><path d="M140.25,19.5 Q140.4531,19 140.6875,18.75 Q140.9219,18.5 141.1875,18.5 Q141.6563,18.5 141.9531,18.7813 Q142.25,19.0625 142.25,19.7188 L142.25,21.2813 Q142.25,21.9375 141.9688,22.2188 Q141.6875,22.5 141.25,22.5 Q140.8594,22.5 140.6094,22.3281 Q140.3594,22.1563 140.25,21.7031 Q140.2031,21.3906 140.0313,21.2188 Q139.7188,20.8906 139.1563,20.7031 Q138.5938,20.5 138.0313,20.5 Q137.3281,20.5 136.7344,20.7813 Q136.1563,21.0625 135.7031,21.6875 Q135.25,22.3125 135.25,23.1719 L135.25,24.0938 Q135.25,25.125 136.0938,25.8125 Q136.9375,26.5 138.4375,26.5 Q139.3281,26.5 139.9531,26.2969 Q140.3125,26.1875 140.7188,25.8281 Q140.9844,25.625 141.125,25.5625 Q141.2656,25.5 141.4375,25.5 Q141.7656,25.5 142,25.7656 Q142.25,26.0156 142.25,26.375 Q142.25,26.7188 141.9063,27.125 Q141.4063,27.7188 140.6094,28.0469 Q139.5625,28.5 138.2813,28.5 Q136.7813,28.5 135.5781,27.9063 Q134.6094,27.4375 133.9219,26.4219 Q133.25,25.4063 133.25,24.2031 L133.25,23.1094 Q133.25,21.8594 133.8438,20.7656 Q134.4531,19.6719 135.5,19.0938 Q136.5625,18.5 137.75,18.5 Q138.4688,18.5 139.0938,18.75 Q139.7188,19 140.25,19.5 Z " fill="#000000"/><text fill="#000000" font-family="sans-serif" font-size="12" lengthAdjust="spacing" textLength="54" x="158.75" y="27.9102">Controller</text><line style="stroke:#A80036;stroke-width:1.5;" x1="90.5" x2="248.5" y1="39" y2="39"/><rect fill="none" height="6" style="stroke:#C82930;stroke-width:1.0;" width="6" x="97.5" y="47"/><text fill="#000000" font-family="sans-serif" font-size="11" lengthAdjust="spacing" textLength="60" x="109.5" y="54.4189">Dialog dialog</text><rect fill="none" height="6" style="stroke:#C82930;stroke-width:1.0;" width="6" x="97.5" y="60.8359"/><text fill="#000000" font-family="sans-serif" font-size="11" lengthAdjust="spacing" textLength="134" x="109.5" y="68.2549">CalculateVAT calculateVAT</text><rect fill="none" height="6" style="stroke:#C82930;stroke-width:1.0;" width="6" x="97.5" y="74.6719"/><text fill="#000000" font-family="sans-serif" font-size="11" lengthAdjust="spacing" textLength="53" x="109.5" y="82.0908">View view</text><line style="stroke:#A80036;stroke-width:1.5;" x1="90.5" x2="248.5" y1="88.5078" y2="88.5078"/><ellipse cx="100.5" cy="99.5078" fill="#84BE84" rx="3" ry="3" style="stroke:#038048;stroke-width:1.0;"/><text fill="#000000" font-family="sans-serif" font-size="11" lengthAdjust="spacing" textLength="70" x="109.5" y="103.9268">runController()</text><!--MD5=[c25c956ab0d33992fc5cdd0db284c9fa]
class Dialog--><rect codeLine="8" fill="#FEFECE" filter="url(#f1frxvyvauvoj2)" height="61.8359" id="Dialog" style="stroke:#A80036;stroke-width:1.5;" width="75" x="7" y="184"/><ellipse cx="25.15" cy="200" fill="#ADD1B2" rx="11" ry="11" style="stroke:#A80036;stroke-width:1.0;"/><path d="M27.15,196.5 Q27.3531,196 27.5875,195.75 Q27.8219,195.5 28.0875,195.5 Q28.5563,195.5 28.8531,195.7813 Q29.15,196.0625 29.15,196.7188 L29.15,198.2813 Q29.15,198.9375 28.8688,199.2188 Q28.5875,199.5 28.15,199.5 Q27.7594,199.5 27.5094,199.3281 Q27.2594,199.1563 27.15,198.7031 Q27.1031,198.3906 26.9313,198.2188 Q26.6188,197.8906 26.0563,197.7031 Q25.4938,197.5 24.9313,197.5 Q24.2281,197.5 23.6344,197.7813 Q23.0563,198.0625 22.6031,198.6875 Q22.15,199.3125 22.15,200.1719 L22.15,201.0938 Q22.15,202.125 22.9938,202.8125 Q23.8375,203.5 25.3375,203.5 Q26.2281,203.5 26.8531,203.2969 Q27.2125,203.1875 27.6188,202.8281 Q27.8844,202.625 28.025,202.5625 Q28.1656,202.5 28.3375,202.5 Q28.6656,202.5 28.9,202.7656 Q29.15,203.0156 29.15,203.375 Q29.15,203.7188 28.8063,204.125 Q28.3063,204.7188 27.5094,205.0469 Q26.4625,205.5 25.1813,205.5 Q23.6813,205.5 22.4781,204.9063 Q21.5094,204.4375 20.8219,203.4219 Q20.15,202.4063 20.15,201.2031 L20.15,200.1094 Q20.15,198.8594 20.7438,197.7656 Q21.3531,196.6719 22.4,196.0938 Q23.4625,195.5 24.65,195.5 Q25.3688,195.5 25.9938,195.75 Q26.6188,196 27.15,196.5 Z " fill="#000000"/><text fill="#000000" font-family="sans-serif" font-size="12" lengthAdjust="spacing" textLength="36" x="39.85" y="204.9102">Dialog</text><line style="stroke:#A80036;stroke-width:1.5;" x1="8" x2="81" y1="216" y2="216"/><line style="stroke:#A80036;stroke-width:1.5;" x1="8" x2="81" y1="224" y2="224"/><ellipse cx="18" cy="235" fill="#84BE84" rx="3" ry="3" style="stroke:#038048;stroke-width:1.0;"/><text fill="#000000" font-family="sans-serif" font-size="11" lengthAdjust="spacing" textLength="49" x="27" y="239.4189">doDialog()</text><!--MD5=[a81c185b53916972fc112889af2253f5]
class CalculateVAT--><rect codeLine="12" fill="#FEFECE" filter="url(#f1frxvyvauvoj2)" height="75.6719" id="CalculateVAT" style="stroke:#A80036;stroke-width:1.5;" width="105" x="117" y="177"/><ellipse cx="132" cy="193" fill="#ADD1B2" rx="11" ry="11" style="stroke:#A80036;stroke-width:1.0;"/><path d="M134,189.5 Q134.2031,189 134.4375,188.75 Q134.6719,188.5 134.9375,188.5 Q135.4063,188.5 135.7031,188.7813 Q136,189.0625 136,189.7188 L136,191.2813 Q136,191.9375 135.7188,192.2188 Q135.4375,192.5 135,192.5 Q134.6094,192.5 134.3594,192.3281 Q134.1094,192.1563 134,191.7031 Q133.9531,191.3906 133.7813,191.2188 Q133.4688,190.8906 132.9063,190.7031 Q132.3438,190.5 131.7813,190.5 Q131.0781,190.5 130.4844,190.7813 Q129.9063,191.0625 129.4531,191.6875 Q129,192.3125 129,193.1719 L129,194.0938 Q129,195.125 129.8438,195.8125 Q130.6875,196.5 132.1875,196.5 Q133.0781,196.5 133.7031,196.2969 Q134.0625,196.1875 134.4688,195.8281 Q134.7344,195.625 134.875,195.5625 Q135.0156,195.5 135.1875,195.5 Q135.5156,195.5 135.75,195.7656 Q136,196.0156 136,196.375 Q136,196.7188 135.6563,197.125 Q135.1563,197.7188 134.3594,198.0469 Q133.3125,198.5 132.0313,198.5 Q130.5313,198.5 129.3281,197.9063 Q128.3594,197.4375 127.6719,196.4219 Q127,195.4063 127,194.2031 L127,193.1094 Q127,191.8594 127.5938,190.7656 Q128.2031,189.6719 129.25,189.0938 Q130.3125,188.5 131.5,188.5 Q132.2188,188.5 132.8438,188.75 Q133.4688,189 134,189.5 Z " fill="#000000"/><text fill="#000000" font-family="sans-serif" font-size="12" lengthAdjust="spacing" textLength="73" x="146" y="197.9102">CalculateVAT</text><line style="stroke:#A80036;stroke-width:1.5;" x1="118" x2="221" y1="209" y2="209"/><rect fill="none" height="6" style="stroke:#C82930;stroke-width:1.0;" width="6" x="125" y="217"/><text fill="#000000" font-family="sans-serif" font-size="11" lengthAdjust="spacing" textLength="42" x="137" y="224.4189">PRCVAT</text><line style="stroke:#A80036;stroke-width:1.5;" x1="118" x2="221" y1="230.8359" y2="230.8359"/><ellipse cx="128" cy="241.8359" fill="#84BE84" rx="3" ry="3" style="stroke:#038048;stroke-width:1.0;"/><text fill="#000000" font-family="sans-serif" font-size="11" lengthAdjust="spacing" textLength="37" x="137" y="246.2549">doVat()</text><!--MD5=[c045e12321b83266d36d22b9096c24ea]
class View--><rect codeLine="17" fill="#FEFECE" filter="url(#f1frxvyvauvoj2)" height="89.5078" id="View" style="stroke:#A80036;stroke-width:1.5;" width="82" x="257.5" y="170"/><ellipse cx="283.3" cy="186" fill="#ADD1B2" rx="11" ry="11" style="stroke:#A80036;stroke-width:1.0;"/><path d="M285.3,182.5 Q285.5031,182 285.7375,181.75 Q285.9719,181.5 286.2375,181.5 Q286.7063,181.5 287.0031,181.7813 Q287.3,182.0625 287.3,182.7188 L287.3,184.2813 Q287.3,184.9375 287.0188,185.2188 Q286.7375,185.5 286.3,185.5 Q285.9094,185.5 285.6594,185.3281 Q285.4094,185.1563 285.3,184.7031 Q285.2531,184.3906 285.0813,184.2188 Q284.7688,183.8906 284.2063,183.7031 Q283.6438,183.5 283.0813,183.5 Q282.3781,183.5 281.7844,183.7813 Q281.2063,184.0625 280.7531,184.6875 Q280.3,185.3125 280.3,186.1719 L280.3,187.0938 Q280.3,188.125 281.1438,188.8125 Q281.9875,189.5 283.4875,189.5 Q284.3781,189.5 285.0031,189.2969 Q285.3625,189.1875 285.7688,188.8281 Q286.0344,188.625 286.175,188.5625 Q286.3156,188.5 286.4875,188.5 Q286.8156,188.5 287.05,188.7656 Q287.3,189.0156 287.3,189.375 Q287.3,189.7188 286.9563,190.125 Q286.4563,190.7188 285.6594,191.0469 Q284.6125,191.5 283.3313,191.5 Q281.8313,191.5 280.6281,190.9063 Q279.6594,190.4375 278.9719,189.4219 Q278.3,188.4063 278.3,187.2031 L278.3,186.1094 Q278.3,184.8594 278.8938,183.7656 Q279.5031,182.6719 280.55,182.0938 Q281.6125,181.5 282.8,181.5 Q283.5188,181.5 284.1438,181.75 Q284.7688,182 285.3,182.5 Z " fill="#000000"/><text fill="#000000" font-family="sans-serif" font-size="12" lengthAdjust="spacing" textLength="26" x="299.7" y="190.9102">View</text><line style="stroke:#A80036;stroke-width:1.5;" x1="258.5" x2="338.5" y1="202" y2="202"/><rect fill="none" height="6" style="stroke:#C82930;stroke-width:1.0;" width="6" x="265.5" y="210"/><text fill="#000000" font-family="sans-serif" font-size="11" lengthAdjust="spacing" textLength="23" x="277.5" y="217.4189">MSG</text><rect fill="none" height="6" style="stroke:#C82930;stroke-width:1.0;" width="6" x="265.5" y="223.8359"/><text fill="#000000" font-family="sans-serif" font-size="11" lengthAdjust="spacing" textLength="56" x="277.5" y="231.2549">CURRENCY</text><line style="stroke:#A80036;stroke-width:1.5;" x1="258.5" x2="338.5" y1="237.6719" y2="237.6719"/><ellipse cx="268.5" cy="248.6719" fill="#84BE84" rx="3" ry="3" style="stroke:#038048;stroke-width:1.0;"/><text fill="#000000" font-family="sans-serif" font-size="11" lengthAdjust="spacing" textLength="46" x="277.5" y="253.0908">doView()</text><!--MD5=[9c59bf3139f68582e0547d737f7b5174]
reverse link Controller to Dialog--><path codeLine="23" d="M120.35,120.25 C102.77,141.98 83.71,165.54 69.09,183.6 " fill="none" id="Controller-backto-Dialog" style="stroke:#A80036;stroke-width:1.0;"/><polygon fill="#A80036" points="128.57,110.09,121.6846,112.2328,121.0143,119.4126,127.8997,117.2699,128.57,110.09" style="stroke:#A80036;stroke-width:1.0;"/><!--MD5=[e2779603e78dd33ccca69e30e443400c]
reverse link Controller to CalculateVAT--><path codeLine="24" d="M169.5,123.34 C169.5,141.44 169.5,160.55 169.5,176.53 " fill="none" id="Controller-backto-CalculateVAT" style="stroke:#A80036;stroke-width:1.0;"/><polygon fill="#A80036" points="169.5,110.09,165.5,116.09,169.5,122.09,173.5,116.09,169.5,110.09" style="stroke:#A80036;stroke-width:1.0;"/><!--MD5=[7e1a56604c17615e4da439b139121f5d]
reverse link Controller to View--><path codeLine="25" d="M220.2,120.22 C234.01,136.76 248.71,154.36 261.59,169.79 " fill="none" id="Controller-backto-View" style="stroke:#A80036;stroke-width:1.0;"/><polygon fill="#A80036" points="211.74,110.09,212.5163,117.2592,219.4326,119.3,218.6563,112.1308,211.74,110.09" style="stroke:#A80036;stroke-width:1.0;"/><!--MD5=[76b7762cc78e3526e1b2826f42d588d6]
@startuml
class Controller {
- Dialog dialog
- CalculateVAT calculateVAT
- View view
+ runController()
}

class Dialog {
+ doDialog()
}

class CalculateVAT {
- PRCVAT
+ doVat()
}

class View {
- MSG
- CURRENCY
+ doView()
}

Controller *- - Dialog
Controller *- - CalculateVAT
Controller *- - View

@enduml

PlantUML version 1.2021.11(Sat Oct 02 15:26:11 CEST 2021)
(GPL source distribution)
Java Runtime: OpenJDK Runtime Environment
JVM: OpenJDK 64-Bit Server VM
Default Encoding: Cp1252
Language: en
Country: US
--></g></svg>